<svg id="Layer_1" data-name="Layer 1" xmlns="http://www.w3.org/2000/svg" xmlns:xlink="http://www.w3.org/1999/xlink" width="729" height="540.14" viewBox="0 0 729 540.14"><defs><style>.cls-1{fill:url(#linear-gradient);}.cls-2{fill:url(#linear-gradient-2);}.cls-3{fill:url(#linear-gradient-3);}.cls-4{fill:url(#linear-gradient-4);}.cls-5{fill:url(#linear-gradient-5);}.cls-6{fill:url(#linear-gradient-6);}</style><linearGradient id="linear-gradient" x1="83" y1="572.22" x2="83" y2="575.06" gradientTransform="translate(-7018.43 -89832.03) scale(91.92 157.2)" gradientUnits="userSpaceOnUse"><stop offset="0" stop-color="#65d9ad"/><stop offset="1" stop-color="#33cc9d"/></linearGradient><linearGradient id="linear-gradient-2" x1="80.63" y1="573.66" x2="79.63" y2="574.82" gradientTransform="translate(-12080.87 -75951.44) scale(154.03 132.97)" gradientUnits="userSpaceOnUse"><stop offset="0" stop-color="#056455"/><stop offset="1" stop-color="#02b788"/></linearGradient><linearGradient id="linear-gradient-3" x1="4.94" y1="662.41" x2="3.43" y2="664.2" gradientTransform="translate(-34.87 -67281.39) scale(95.56 102.22)" gradientUnits="userSpaceOnUse"><stop offset="0" stop-color="#a32600"/><stop offset="1" stop-color="#fba602"/></linearGradient><linearGradient id="linear-gradient-4" x1="80.34" y1="572.57" x2="79.64" y2="575.1" gradientTransform="translate(-12204.35 -92088.84) scale(155.49 161.13)" gradientUnits="userSpaceOnUse"><stop offset="0" stop-color="#36afd0"/><stop offset="1" stop-color="#086277"/></linearGradient><linearGradient id="linear-gradient-5" x1="-41.99" y1="572.97" x2="-41.99" y2="575.81" gradientTransform="translate(4836.83 -101343.47) scale(102.97 177.06)" gradientUnits="userSpaceOnUse"><stop offset="0" stop-color="#f7d567"/><stop offset="1" stop-color="#e09d1a"/></linearGradient><linearGradient id="linear-gradient-6" x1="81.49" y1="572.14" x2="81.49" y2="574.99" gradientTransform="translate(-7783.36 -105992.16) scale(100.71 185.44)" gradientUnits="userSpaceOnUse"><stop offset="0" stop-color="#e95f40"/><stop offset="1" stop-color="#d2330f"/></linearGradient></defs><title>daz-logo</title><g id="Page-1"><g id="v"><g id="Page-1-2" data-name="Page-1"><path id="Fill-1" class="cls-1" d="M719.51,445.34s9.39,2,9.39,11.38-12.81,11.1-12.81,23.34,10.25,21.35,8.82,42.7c-1.7,21.34-17.36,33.87-28.18,40.13s-54.07-1.14-84,0c-29.6,1.14-75.71,2.56-75.71,2.56L480.13,281.1,504.89,118s64.62,15.66,107.59,61.2S656.32,269.43,666,288.5c9.4,19.08,21.07,33.59,40.42,41.56s35,12.52,35.58,29.6c.57,17.36-26.18,30.46-22.48,44.4s7.68,13.95,11.38,19.07c2,2.57.57,6.84-2.85,11.67a88,88,0,0,1-8.53,10.54" transform="translate(-13 -104.79)"/><path id="Fill-3" class="cls-2" d="M163.05,187.18S97.59,236.7,59.45,289.93C21.59,343.15,33,378.16,102.71,380.44s191.84-.85,231.41,17.36c39.56,17.93,59.77,50.95,40.13,97.06-19.36,46.11-91.94,57.5-91.94,57.5l143.74,13.37,50.38-140.6-146-232.26Z" transform="translate(-13 -104.79)"/><g id="Group-7"><path id="Fill-5" class="cls-3" d="M344.08,376.23s56.35,16.79,73.43,52.94-27.89,94.21-84,106.17c-56.64,11.95-92.79-1.71-100.19,47.53-7.69,49.24,99.33,76,148,54.65S472.45,569.21,498.92,516s-43-162-43-162Z" transform="translate(-13 -104.79)"/></g><path id="Fill-8" class="cls-4" d="M82.79,261.46s76.85-43.54,134.91-46.39c36.72-1.71,82.83,5.12,81.69,41C298,292.2,248.44,329.21,159.64,366.21,65.14,405.77,11.06,469,13.05,517.63c2,52.94,56.36,65.47,96.78,15.37s57.78-116.13,129.79-135.77c63.47-17.36,109-22.77,157.11-66.88s69.74-89.09,53.52-147.73c-15.94-58.35-83.12-76.85-83.12-76.85s-60.62.29-150,44.69c-89.09,44.69-134.34,111-134.34,111" transform="translate(-13 -104.79)"/><g id="Group-12"><path id="Fill-10" class="cls-5" d="M555,137.71s-26.19,2.56-30.46,28.75c-6.26,40.13,33,109.86,63.48,135.76,30.45,25.62,71.15,57.21,72.29,123.25S615.05,547.29,545,567.21c-58.35,16.51-108.45,41.56-108.45,41.56l88.81-134.63L510,330.69,464.48,164.75,399.3,118.07,376.53,109l-9.68-2.85s54.08-4.83,104.46,4c59.2,10.25,83.68,27.61,83.68,27.61" transform="translate(-13 -104.79)"/></g><path id="Fill-13" class="cls-6" d="M566.94,373.61c0-129.22-84.82-237.67-199.24-267.55,6.26,1.7,67.46,21.06,82.83,76.56C466.47,241,444.84,286.51,397,330.35c-37.29,33.87-72.87,45-116.41,56.35h0s31.87-.57,83.11,5.41,87.38,43,100.47,84C477,516.78,465.33,545,450,573.7c-15.08,28.18-57.21,59.49-58.63,60.35,102.18-37.86,175.61-140.33,175.61-260.44" transform="translate(-13 -104.79)"/></g></g></g></svg>